<svg xmlns="http://www.w3.org/2000/svg" aria-hidden="true" style="position:absolute;width:0;height:0;overflow:hidden">
  <defs>
    <symbol id="icon-arrow-left" viewBox="0 0 37 32">
      <path d="M35.232 18.482H8.75l10.286 10.286L15.804 32 .001 16.197 15.804.394l3.232 3.232L8.75 13.912h26.482v4.571z"/>
    </symbol>
    <symbol id="icon-arrow-right" viewBox="0 0 37 32">
      <path d="M1.339 13.518h26.482L17.535 3.232 20.767 0 36.57 15.803 20.767 31.606l-3.232-3.232 10.286-10.286H1.339v-4.571z"/>
    </symbol>
    <symbol id="icon-big-btn-arrow" viewBox="0 0 12 32">
      <path fill="#fff" d="M2.702.706 11.878 16 2.702 31.294.207 29.797 8.485 16 .207 2.203 2.702.706z" style="fill:var(--color1, #fff)"/>
    </symbol>
    <symbol id="icon-download-tray" viewBox="0 0 32 32">
      <path stroke-width="2" d="M3.223 22.389v6.389h25.556v-6.389M8.334 13.444l7.667 7.667 7.667-7.667M16.001 21.111V1.944"/>
    </symbol>
    <symbol id="icon-open-menu-btn" viewBox="0 0 32 32">
      <path stroke-linecap="round" stroke-linejoin="round" stroke-width="2.667" d="M4 8h24M4 16h24M4 24h24"/>
    </symbol>
    <symbol id="icon-btn-arrow" viewBox="0 0 12 32">
      <path fill="#fff" d="M2.52.706 11.696 16 2.52 31.294.025 29.797 8.303 16 .025 2.203 2.52.706z" style="fill:var(--color1, #fff)"/>
    </symbol>
    <symbol id="icon-x-logo" viewBox="0 0 45 32">
      <path fill="#fff" d="m44.762 0-9.238 12.794L26.273 0h18.49z" style="fill:var(--color1, #fff)"/>
      <path d="M43.189 32H24.683L1.558 0h18.506l23.125 32z" style="fill:var(--color2, #000)"/>
      <path fill="#fff" d="M18.49 32 0 31.987l9.238-12.784L18.489 32z" style="fill:var(--color1, #fff)"/>
    </symbol>
    <symbol id="icon-close-menu-btn" viewBox="0 0 32 32">
      <path stroke-linecap="round" stroke-linejoin="round" stroke-width="2" d="m9.333 9.333 13.333 13.333m-13.333.001L22.666 9.334"/>
    </symbol>
    <symbol id="icon-envelope" viewBox="0 0 30 32">
      <path d="M1.238 11.56V23a4 4 0 0 0 4 4h20a4 4 0 0 0 4-4V11.56l-11.904 7.324a4 4 0 0 1-4.192 0L1.238 11.56z"/>
      <path d="M29.238 9.211V9a4 4 0 0 0-4-4h-20a4 4 0 0 0-4 4v.211l12.952 7.971a1.997 1.997 0 0 0 2.096 0l12.952-7.971z"/>
    </symbol>
    <symbol id="icon-facebook" viewBox="0 0 31 32">
      <path d="M29.03.521H1.689a1.69 1.69 0 0 0-1.69 1.69v27.341a1.69 1.69 0 0 0 1.69 1.69h14.715V19.338H12.41V14.73h3.994v-3.456a5.605 5.605 0 0 1 1.549-4.459 5.585 5.585 0 0 1 4.411-1.684 30.775 30.775 0 0 1 3.579.184v4.147h-2.442c-1.935 0-2.304.922-2.304 2.258v2.965h4.608l-.599 4.608h-4.009v11.95h7.834a1.694 1.694 0 0 0 1.69-1.69V2.212a1.69 1.69 0 0 0-1.69-1.69z"/>
    </symbol>
    <symbol id="icon-flag-for-ukraine" viewBox="0 0 32 32">
      <path fill="#ffe62e" d="M16 31c8.3 0 15-6.7 15-15H1c0 8.3 6.7 15 15 15z" style="fill:var(--color3, #ffe62e)"/>
      <path fill="#428bc1" d="M16 1C7.7 1 1 7.7 1 16h30c0-8.3-6.7-15-15-15z" style="fill:var(--color4, #428bc1)"/>
    </symbol>
    <symbol id="icon-linkedin" viewBox="0 0 31 32">
      <path d="M0 2.721c0-1.215 1.01-2.2 2.256-2.2h26.208c1.246 0 2.256.985 2.256 2.2V29.04c0 1.215-1.01 2.2-2.256 2.2H2.256C1.01 31.24 0 30.255 0 29.04V2.721zm9.491 23.516V12.365h-4.61v13.872h4.61zM7.187 10.47c1.607 0 2.607-1.064 2.607-2.396-.029-1.361-.998-2.396-2.577-2.396S4.608 6.715 4.608 8.074c0 1.332 1 2.396 2.548 2.396h.031zm9.423 15.767V18.49c0-.415.031-.829.154-1.125.332-.828 1.091-1.686 2.365-1.686 1.668 0 2.335 1.271 2.335 3.137v7.421h4.61v-7.956c0-4.262-2.273-6.244-5.307-6.244-2.446 0-3.542 1.344-4.157 2.291v.048h-.031l.031-.048v-1.962h-4.608c.058 1.302 0 13.872 0 13.872h4.608z"/>
    </symbol>
    <symbol id="icon-full-logo" viewBox="0 0 230 32">
      <path fill="#1d1d1b" d="M204.969 15.079h8.648l3.899-3.822 3.794 3.822h9.091l-8.096-7.54 8.096-7.327h-8.648l-3.9 3.822L214.06.212h-9.091l8.096 7.54-8.096 7.327zm-22.382 0h18.459v-3.801h-11.255V9.474h11.255V5.821h-11.255V4.017h11.255V.213h-18.459v14.866zM156.305 4.46h7.205v10.619h7.205V4.46h7.205V.213h-21.618V4.46h.003zM128.901.213l9.051 8.708v6.158h7.204V8.921l9.051-8.708h-7.864L141.7 4.78 137.057.213h-8.156zm-16.34 14.866h17.973v-4.247h-10.768V.213h-7.205v14.866zM89.524 7.753V7.54c0-2.144 1.632-3.292 4.684-3.292h.762c3.052 0 4.684 1.148 4.684 3.292v.213c0 2.144-1.632 3.292-4.684 3.292h-.762c-3.052 0-4.684-1.148-4.684-3.292zm-7.504.106c0 4.736 4.218 7.433 11.594 7.433h1.951c7.376 0 11.594-2.698 11.594-7.433v-.426c0-4.736-4.218-7.433-11.594-7.433h-1.951C86.238 0 82.02 2.698 82.02 7.433v.426zM57.053 6.265v8.814h7.205V9.856h6.591c4.852 0 7.078-1.488 7.078-4.694v-.254c0-3.292-2.119-4.694-7.078-4.694H57.053v4.247h12.314c.847 0 1.293.299 1.293.87v.065c0 .574-.446.87-1.293.87H57.053zM61.648 25.349h-1.804v4.061h-1.981v-5.904h5.762v5.904h-1.981v-4.061h.003zM66.235 20.871c.614 0 1.001.39 1.001 1.003s-.39 1.003-1.001 1.003c-.611 0-1.012-.379-1.012-1.003s.401-1.003 1.012-1.003zm-.989 2.635h1.981v5.904h-1.981v-5.904zM68.086 27.567h.708c.236-.012.437-.154.461-.615l.142-3.449h5.328v4.064h1.083l-.319 3.248h-1.78l.094-1.405h-3.902l-.035 1.405h-1.78v-3.248zm2.78.059h1.874v-2.277h-1.579l-.059 1.156c-.024.426-.094.804-.236 1.121zM80.592 27.2h-1.886v2.21h-1.981v-5.904h1.981v2.091h1.886v-2.091h1.981v5.904h-1.981V27.2zM85.176 20.871c.614 0 1.001.39 1.001 1.003s-.39 1.003-1.001 1.003c-.611 0-1.012-.379-1.012-1.003s.401-1.003 1.012-1.003zm-.989 2.635h1.981v5.904h-1.981v-5.904zM89.854 26.15h-.118v3.26h-1.957v-5.904h2.686l1.189 3.425h.142l1.189-3.425h2.686v5.904h-1.957v-3.26h-.13l-1.154 3.26h-1.414l-1.166-3.26h.003zM103.337 29.41h-1.981v-.556a2.45 2.45 0 0 1-1.756.698c-1.52 0-2.627-1.204-2.627-3.094s1.107-3.094 2.627-3.094c.697 0 1.296.26 1.756.71v-.568h1.981v5.904zm-1.907-2.952c0-.769-.484-1.228-1.225-1.228s-1.225.461-1.225 1.228c0 .766.484 1.228 1.225 1.228s1.225-.461 1.225-1.228zM111.094 27.035c-.248 1.559-1.532 2.514-3.206 2.514-1.874 0-3.253-1.204-3.253-3.094s1.378-3.094 3.253-3.094c1.674 0 2.946.955 3.206 2.505h-2.075c-.189-.402-.602-.639-1.13-.639-.567 0-.989.26-1.166.71h1.721v1.038h-1.721c.177.461.602.71 1.166.71s.942-.237 1.13-.651h2.075zM114.465 26.15h-.118v3.26h-1.957v-5.904h2.686l1.189 3.425h.142l1.189-3.425h2.686v5.904h-1.957v-3.26h-.13l-1.154 3.26h-1.414l-1.166-3.26h.003zM121.584 26.458c0-1.89 1.378-3.094 3.253-3.094s3.252 1.204 3.252 3.094-1.378 3.094-3.252 3.094-3.253-1.204-3.253-3.094zm2.004 0c0 .766.496 1.228 1.249 1.228s1.249-.461 1.249-1.228c0-.766-.496-1.228-1.249-1.228s-1.249.461-1.249 1.228zM136.201 27.2h-1.885v2.21h-1.981v-5.904h1.981v2.091h1.885v-2.091h1.98v5.904h-1.98V27.2zM145.841 29.41h-1.98v-.556a2.45 2.45 0 0 1-1.756.698c-1.521 0-2.627-1.204-2.627-3.094s1.106-3.094 2.627-3.094c.696 0 1.295.26 1.756.71v-.568h1.98v5.904zm-1.91-2.952c0-.769-.484-1.228-1.225-1.228s-1.225.461-1.225 1.228c0 .766.484 1.228 1.225 1.228s1.225-.461 1.225-1.228zM154.282 27.2h-1.885v2.21h-1.981v-5.904h1.981v2.091h1.885v-2.091h1.981v5.904h-1.981V27.2zM157.559 26.458c0-1.89 1.379-3.094 3.252-3.094 1.875 0 3.252 1.204 3.252 3.094s-1.377 3.094-3.252 3.094c-1.874 0-3.252-1.204-3.252-3.094zm2.005 0c0 .766.495 1.228 1.248 1.228s1.249-.461 1.249-1.228c0-.766-.497-1.228-1.249-1.228s-1.248.461-1.248 1.228zM165.361 23.506h2.757c1.72 0 2.981.615 2.981 1.701 0 .577-.39.955-.883 1.192v.107c.484.177.954.556.954 1.133 0 1.026-1.107 1.772-3.005 1.772h-2.803v-5.904zm2.866 1.618h-.883v.813h1.037c.401 0 .637-.166.637-.402 0-.26-.284-.402-.788-.414l-.003.003zm.221 1.852h-1.107v.813h.906c.556 0 .847-.142.847-.414 0-.237-.248-.402-.65-.402l.004.003zM172.456 23.506h1.981v3.626h.082l1.898-3.626h2.24v5.904h-1.98v-3.626h-.083l-1.898 3.626h-2.24v-5.904zM180.284 23.506h1.98v3.626h.083l1.897-3.626h2.241v5.904h-1.981v-3.626h-.082l-1.898 3.626h-2.24v-5.904zm5.537-2.363v.201c-.201 1.109-1.249 1.724-2.438 1.724s-2.24-.615-2.438-1.724v-.201h1.58c.106.331.425.568.859.568s.755-.237.859-.568h1.58zM191.057 23.506h1.981v.568c.448-.45 1.06-.71 1.756-.71 1.519 0 2.627 1.204 2.627 3.094s-1.107 3.094-2.627 3.094c-.696 0-1.308-.248-1.756-.698v2.387h-1.981v-7.735zm1.909 2.952c0 .766.485 1.228 1.225 1.228.741 0 1.225-.461 1.225-1.228s-.484-1.228-1.225-1.228c-.74 0-1.225.461-1.225 1.228zM199.697 20.871c.614 0 1.001.39 1.001 1.003s-.39 1.003-1.001 1.003-1.012-.379-1.012-1.003c0-.624.402-1.003 1.012-1.003zm-.992 2.635h1.981v5.904h-1.981v-5.904zM202.3 23.506h2.757c1.72 0 2.981.615 2.981 1.701 0 .577-.389.955-.883 1.192v.107c.485.177.954.556.954 1.133 0 1.026-1.106 1.772-3.004 1.772h-2.804v-5.904zm2.864 1.618h-.883v.813h1.037c.401 0 .637-.166.637-.402 0-.26-.283-.402-.788-.414l-.003.003zm.224 1.852h-1.107v.813h.906c.556 0 .847-.142.847-.414 0-.237-.248-.402-.649-.402l.003.003zM215.524 27.188v.379c-.366 1.121-1.603 1.985-3.206 1.985-1.874 0-3.252-1.204-3.252-3.094s1.379-3.094 3.252-3.094c1.674 0 2.947.955 3.206 2.505v.849h-4.443c.095.651.567 1.038 1.236 1.038.485 0 .906-.178 1.132-.568h2.075zm-4.324-1.523h2.24c-.201-.414-.567-.651-1.119-.651-.52 0-.918.237-1.119.651h-.003zM220.689 27.2h-1.885v2.21h-1.981v-5.904h1.981v2.091h1.885v-2.091h1.98v5.904h-1.98V27.2zM224.296 23.506h1.981v1.511h.767c1.969 0 3.005.935 3.005 2.198s-1.037 2.195-3.005 2.195h-2.746v-5.904h-.003zm2.827 3.189h-.846v1.038h.846c.603 0 .847-.225.847-.521s-.248-.521-.847-.521v.003z" style="fill:var(--color5, #1d1d1b)"/>
      <path fill="#5baa31" d="m40.816 0-8.424 11.666L23.956 0h16.86z" style="fill:var(--color6, #5baa31)"/>
      <path fill="#1d1d1b" d="M39.381 29.179H22.506L1.419 0h16.875l21.087 29.179z" style="fill:var(--color5, #1d1d1b)"/>
      <path fill="#5baa31" d="M16.86 29.179 0 29.167 8.424 17.51l8.436 11.669z" style="fill:var(--color6, #5baa31)"/>
    </symbol>
    <symbol id="icon-phone" viewBox="0 0 30 32">
      <path d="M1.238 6a4 4 0 0 1 4-4h1.829a2.5 2.5 0 0 1 2.425 1.893l1.473 5.897a2.5 2.5 0 0 1-.925 2.607L8.316 13.69c-.18.135-.219.332-.168.469a15.045 15.045 0 0 0 8.929 8.929c.137.051.333.012.469-.168l1.293-1.724a2.499 2.499 0 0 1 2.607-.925l5.897 1.473a2.502 2.502 0 0 1 1.893 2.427v1.828a4 4 0 0 1-4 4h-3c-11.597 0-21-9.403-21-21v-3z"/>
    </symbol>
    <symbol id="icon-pre-title-icon" viewBox="0 0 68 32">
      <path d="M0 32h18.966l23.7-32H23.7L0 32zM24.889 32h18.966l23.7-32H48.589l-23.7 32z"/>
    </symbol>
  </defs>
</svg>