<svg xmlns="http://www.w3.org/2000/svg" aria-hidden="true" style="position:absolute;width:0;height:0;overflow:hidden">
  <defs>
<symbol id="header-logo" viewBox="0 0 180 24">
  <path d="M160.129 11.781h6.754l3.047-2.984 2.965 2.984h7.101l-6.324-5.89 6.324-5.723h-6.758l-3.047 2.984-2.96-2.984h-7.102l6.324 5.887Zm-17.488 0h14.422V8.812h-8.793v-1.41h8.792V4.547h-8.792v-1.41h8.792V.168h-14.421Zm-20.532-8.297h5.63v8.297h5.628V3.484h5.63V.168h-16.888ZM100.703.168l7.07 6.8v4.813h5.625V6.97l7.075-6.801h-6.145L110.7 3.734 107.074.168ZM87.937 11.781h14.04v-3.32h-8.41V.168h-5.63Zm-18-5.726V5.89c0-1.676 1.278-2.575 3.66-2.575h.594c2.387 0 3.66.899 3.66 2.575v.164c0 1.675-1.273 2.574-3.66 2.574h-.593c-2.383 0-3.66-.899-3.66-2.574Zm-5.859.086c0 3.699 3.293 5.804 9.055 5.804h1.527c5.762 0 9.055-2.105 9.055-5.804v-.332c0-3.7-3.293-5.809-9.055-5.809h-1.527c-5.762 0-9.055 2.11-9.055 5.809ZM44.57 4.895v6.886h5.63V7.7h5.148c3.793 0 5.53-1.16 5.53-3.668v-.199c0-2.57-1.655-3.664-5.53-3.664H44.57v3.316h9.621c.66 0 1.012.235 1.012.68v.05c0 .45-.351.68-1.012.68ZM48.16 19.805h-1.406v3.172h-1.547v-4.614h4.5v4.614H48.16ZM51.746 16.305c.48 0 .781.304.781.785 0 .476-.304.781-.78.781-.477 0-.794-.297-.794-.781 0-.488.317-.785.793-.785Zm-.773 2.058h1.547v4.614h-1.547ZM53.191 21.535h.555c.184-.008.34-.117.36-.48l.109-2.692h4.16v3.172h.848l-.25 2.54h-1.391l.074-1.098H54.61l-.027 1.097h-1.39Zm2.172.047h1.465v-1.777h-1.234l-.047.902c-.02.332-.074.629-.184.875ZM62.96 21.25h-1.472v1.727h-1.547v-4.614h1.547v1.633h1.473v-1.633h1.547v4.614H62.96ZM66.543 16.305c.48 0 .781.304.781.785 0 .476-.304.781-.781.781-.477 0-.793-.297-.793-.781 0-.488.316-.785.793-.785Zm-.773 2.058h1.546v4.614H65.77ZM70.195 20.43h-.09v2.547h-1.53v-4.614h2.1l.927 2.676h.113l.93-2.676h2.097v4.614h-1.527V20.43h-.102l-.902 2.547h-1.106ZM80.73 22.977h-1.546v-.434a1.91 1.91 0 0 1-1.371.543c-1.188 0-2.055-.938-2.055-2.414 0-1.477.867-2.418 2.055-2.418a1.92 1.92 0 0 1 1.37.555v-.446h1.547Zm-1.488-2.305c0-.602-.379-.961-.957-.961-.582 0-.957.36-.957.96 0 .599.375.958.957.958.578 0 .957-.36.957-.957ZM86.79 21.121c-.192 1.219-1.196 1.965-2.505 1.965-1.465 0-2.539-.941-2.539-2.418 0-1.477 1.074-2.418 2.54-2.418 1.308 0 2.3.746 2.503 1.957h-1.621c-.145-.312-.469-.5-.883-.5-.441 0-.773.207-.91.555h1.344v.812h-1.344c.137.36.469.555.91.555.442 0 .738-.184.883-.508ZM89.422 20.43h-.09v2.547h-1.531v-4.614h2.101l.93 2.676h.11l.93-2.676h2.097v4.614H92.44V20.43h-.101l-.903 2.547h-1.105ZM94.984 20.672c0-1.477 1.079-2.418 2.543-2.418 1.465 0 2.54.941 2.54 2.418 0 1.476-1.075 2.414-2.54 2.414s-2.543-.938-2.543-2.414Zm1.567 0c0 .598.386.957.976.957.586 0 .977-.36.977-.957 0-.602-.39-.961-.977-.961-.59 0-.976.36-.976.96ZM106.402 21.25h-1.472v1.727h-1.547v-4.614h1.547v1.633h1.472v-1.633h1.551v4.614h-1.55ZM113.934 22.977h-1.547v-.434a1.91 1.91 0 0 1-1.371.543c-1.188 0-2.051-.938-2.051-2.414 0-1.477.863-2.418 2.05-2.418a1.92 1.92 0 0 1 1.372.555v-.446h1.547Zm-1.489-2.305c0-.602-.379-.961-.957-.961-.582 0-.957.36-.957.96 0 .599.375.958.957.958.578 0 .957-.36.957-.957ZM120.531 21.25h-1.472v1.727h-1.547v-4.614h1.547v1.633h1.472v-1.633h1.547v4.614h-1.547ZM123.09 20.672c0-1.477 1.078-2.418 2.539-2.418 1.465 0 2.543.941 2.543 2.418 0 1.476-1.078 2.414-2.543 2.414-1.461 0-2.54-.938-2.54-2.414Zm1.566 0c0 .598.387.957.973.957.59 0 .976-.36.976-.957 0-.602-.386-.961-.976-.961-.586 0-.973.36-.973.96ZM129.184 18.363h2.156c1.344 0 2.328.48 2.328 1.328 0 .454-.305.747-.691.934v.082c.378.14.746.434.746.887 0 .8-.868 1.383-2.348 1.383h-2.191Zm2.238 1.266h-.688v.633h.809c.316 0 .5-.13.5-.313 0-.203-.223-.312-.617-.324Zm.176 1.445h-.868v.637h.708c.437 0 .664-.113.664-.324 0-.184-.196-.313-.508-.313ZM134.727 18.363h1.546v2.832h.067l1.48-2.832h1.75v4.614h-1.547v-2.832h-.062l-1.484 2.832h-1.75ZM140.844 18.363h1.547v2.832h.066l1.48-2.832h1.75v4.614h-1.546v-2.832h-.067l-1.48 2.832h-1.75Zm4.324-1.843v.156c-.156.867-.973 1.347-1.902 1.347-.93 0-1.75-.48-1.907-1.347v-.156h1.235c.082.257.332.44.672.44.336 0 .59-.183.668-.44ZM149.262 18.363h1.547v.446a1.9 1.9 0 0 1 1.37-.555c1.188 0 2.051.941 2.051 2.418 0 1.476-.863 2.414-2.05 2.414-.543 0-1.024-.191-1.371-.543v1.863h-1.547Zm1.488 2.309c0 .598.379.957.957.957s.957-.36.957-.957c0-.602-.379-.961-.957-.961s-.957.36-.957.96ZM156.008 16.305c.48 0 .781.304.781.785 0 .476-.3.781-.781.781-.477 0-.79-.297-.79-.781 0-.488.313-.785.79-.785Zm-.774 2.058h1.547v4.614h-1.547ZM158.043 18.363h2.152c1.348 0 2.332.48 2.332 1.328 0 .454-.304.747-.691.934v.082c.379.14.746.434.746.887 0 .8-.867 1.383-2.348 1.383h-2.191Zm2.238 1.266h-.691v.633h.808c.317 0 .5-.13.5-.313 0-.203-.222-.312-.617-.324Zm.172 1.445h-.863v.637h.707c.433 0 .664-.113.664-.324 0-.184-.195-.313-.508-.313ZM168.375 21.242v.293c-.29.88-1.254 1.55-2.504 1.55-1.465 0-2.543-.937-2.543-2.413 0-1.477 1.078-2.418 2.543-2.418 1.305 0 2.3.746 2.504 1.957v.664h-3.473c.075.508.442.809.97.809.374 0 .706-.137.882-.442Zm-3.379-1.191h1.75c-.156-.324-.445-.508-.875-.508-.406 0-.715.184-.875.508ZM172.41 21.25h-1.476v1.727h-1.547v-4.614h1.547v1.633h1.476v-1.633h1.547v4.614h-1.547ZM175.227 18.363h1.546v1.18h.602c1.535 0 2.348.73 2.348 1.719 0 .988-.813 1.715-2.348 1.715h-2.145v-4.614Zm2.21 2.492h-.664v.813h.665c.468 0 .66-.176.66-.41 0-.23-.196-.406-.66-.406Zm0 0" style="stroke:none;fill-rule:nonzero;fill:#1d1d1b;fill-opacity:1"/>
  <path d="m31.887 0-6.582 9.113L18.715 0Zm0 0" style="stroke:none;fill-rule:nonzero;fill:#5baa31;fill-opacity:1"/>
  <path d="M30.766 22.797H17.582L1.109 0h13.184Zm0 0" style="stroke:none;fill-rule:nonzero;fill:#1d1d1b;fill-opacity:1"/>
  <path d="M13.172 22.797 0 22.785l6.582-9.105Zm0 0" style="stroke:none;fill-rule:nonzero;fill:#5baa31;fill-opacity:1"/>
</symbol>
<symbol id="main-button-arrow" viewBox="0 0 14 36">
  <g clip-path="url(#a)">
    <path fill="#fff" fill-rule="evenodd" d="M3.04.794 13.362 18 3.039 35.205.233 33.522 9.546 18 .233 2.478 3.04.794Z" clip-rule="evenodd"/>
  </g>
  <defs>
    <clipPath id="a">
      <path fill="#fff" d="M0 0h13.909v36H0z"/>
    </clipPath>
  </defs>
</symbol>
<symbol id="button-arrow" viewBox="0 0 7 16 ">
  <g clip-path="url(#clip0_2054_2446)">
    <path fill-rule="evenodd" clip-rule="evenodd" d="M1.7602 0.353027L6.34835 7.99994L1.7602 15.6468L0.512939 14.8985L4.65206 7.99994L0.512939 1.10139L1.7602 0.353027Z" fill="white"/>
  </g>
  <defs>
    <clipPath id="clip0_2054_2446">
      <rect width="6.18182" height="16" fill="white" transform="translate(0.40918)"/>
    </clipPath>
  </defs>
</symbol>
<symbol id="nav-arrow-left" viewBox="0 0 18 18">
  <path d="M16.414 10.086H4.828L9.328 14.586L7.914 16L1 9.086L7.914 2.172L9.328 3.586L4.828 8.086H16.414V10.086Z"/>
</symbol>
<symbol id="nav-arrow-right" viewBox="0 0 18 18">
  <path d="M0.586 7.914L12.172 7.914L7.672 3.414L9.086 2L16 8.914L9.086 15.828L7.672 14.414L12.172 9.914H0.586V7.914Z"/>
</symbol>
<symbol id="pre-title-icon" viewBox="0 0 38 18" fill="none">
  <path d="M0 18H10.6685L24 0H13.3315L0 18Z" fill="#5BB139"/>
  <path d="M14 18H24.6685L38 0H27.3315L14 18Z" fill="#5BB139"/>
</symbol>
<symbol id="brand-icon" width="31" height="22" viewBox="0 0 31 22" fill="none">
  <path d="M30.7737 0L24.4223 8.79554L18.062 0H30.7737Z" fill="white"/>
  <path d="M29.6922 22H16.9694L1.0708 0H13.7937L29.6922 22Z" fill="black"/>
  <path d="M12.7117 22H0V21.9911L6.35141 13.2023L12.7117 22Z" fill="white"/>
</symbol>
  </defs>
</svg>